<svg xmlns="http://www.w3.org/2000/svg" viewBox="0 0 215 60.80275"><defs><style>.a{fill:#003b45;}.b{fill:#5f636a;}.c{fill:#95c94f;}</style></defs><title>bic</title><path class="a" d="M90.04028,33.94916H87.11084V49.73493h2.92944c3.32367,0,5.33606-1.83673,5.33606-7.89172C95.37634,35.78705,93.364,33.94916,90.04028,33.94916ZM89.734,48.29206h-.917v-12.9h.917c2.49335,0,3.93622,1.05072,3.93622,6.45118C93.67023,47.24244,92.22736,48.29206,89.734,48.29206Zm90.98193-14.56055c-2.9295,0-4.98449,1.39929-4.98449,5.291v5.64074c0,3.89118,2.055,5.29157,4.98449,5.29157s4.98493-1.40039,4.98493-5.29157V39.02253C185.70087,35.1308,183.64532,33.73151,180.71594,33.73151ZM182.68359,45.056c0,1.74957-.76452,2.23132-1.96765,2.23132-1.20209,0-1.96771-.48175-1.96771-2.23132V38.62867c0-1.7489.76562-2.23065,1.96771-2.23065,1.20313,0,1.96765.48175,1.96765,2.23065Zm-72.439-7.80506a2.02049,2.02049,0,0,1,2.16437-2.07648c1.639,0,2.2959,1.22358,2.42736,2.84162h1.57435c-.13141-2.755-1.618-4.28455-3.89289-4.28455a3.52445,3.52445,0,0,0-3.80389,3.673c0,4.505,6.34118,4.9198,6.34118,8.50384,0,1.68323-.91925,2.603-2.34,2.603-1.68323,0-2.55823-1.1601-2.60187-3.01782h-1.5744c.04364,2.64666,1.53015,4.4613,4.0011,4.4613a3.67707,3.67707,0,0,0,4.04486-4.02435C116.58478,40.85932,110.24463,40.81452,110.24463,37.25092Zm-39.8822,12.484h1.7044V33.94916h-1.7044Zm11.82776-4.15411h-.04395l-4.066-11.63166H75.41315V49.73493h1.70416V36.00464h.04388l4.89808,13.73029h1.83587V33.94916H82.19019ZM117.28467,35.392h3.23608v14.3429H122.226V35.392h3.23664V33.94916h-8.178Zm-12.791,10.14515c0,1.59649-.459,2.97418-2.31768,2.97418-1.85883,0-2.31788-1.37769-2.31788-2.97418v-11.588H98.15308V45.58082c0,2.53668,1.18023,4.374,4.02295,4.374,2.84252,0,4.023-1.83734,4.023-4.374V33.94916h-1.70533Zm51.97388-11.588h-1.70587V49.73493h6.82117V48.29206h-5.1153Zm11.98193-.21765c-2.93,0-4.98565,1.39929-4.98565,5.291v5.64074c0,3.89118,2.0556,5.29157,4.98565,5.29157,2.92884,0,4.98389-1.40039,4.98389-5.29157v-.6557h-3.01678V45.056c0,1.74957-.76563,2.23132-1.96711,2.23132-1.20324,0-1.96826-.48175-1.96826-2.23132V38.62867c0-1.7489.765-2.23065,1.96826-2.23065,1.20148,0,1.96711.48175,1.96711,2.23065v.43866h3.01678v-.0448C173.43341,35.1308,171.37836,33.73151,168.44952,33.73151Zm41.01972.21765H205.119V49.73493h3.01617v-6.34h1.33411c3.71661,0,5.53076-1.749,5.53076-4.72259C215,35.69922,213.18585,33.94916,209.46924,33.94916Zm.28338,6.95325h-1.61749V36.44275h1.61749a1.97045,1.97045,0,0,1,2.23005,2.22956A1.97061,1.97061,0,0,1,209.75262,40.90241Zm-63.01586-6.95325-3.47638,15.78577h1.70587l.94018-4.679h4.02332l.93963,4.679h1.70533l-3.47638-15.78577Zm-.59,9.66449,1.74951-8.48285h.04358l1.74841,8.48285Zm48.84686.69989H194.95l-2.73279-10.36438h-4.21936V49.73493h2.57984V37.31775h.04419l3.21338,12.41718h2.27429l3.21283-12.41718h.04364V49.73493h2.58032V33.94916h-4.2193Zm-59.23346-6.27539c0-2.60248-1.79254-4.089-4.32928-4.089h-3.80335V49.73493h1.70526V42.34528l2.23017-.08667,2.53613,7.47632h1.792l-2.667-7.82538A3.79824,3.79824,0,0,0,135.76019,38.03815Zm-4.94073,2.82117h-1.48664V35.392h1.48664c2.4494,0,3.236.9629,3.236,2.734S133.26886,40.85932,130.81946,40.85932Zm8.41821,8.87561h1.70593V33.94916h-1.70593Z"/><rect class="b" x="62.59471" y="1.90397" width="0.33352" height="49.8367"/><path class="a" d="M28.46621,15.60961,26.02671,0,23.54809,15.86745a10.77465,10.77465,0,0,1,4.91812-.25784Z"/><path class="a" d="M23.61581,36.793l2.4109,15.26163,2.37265-15.01052a10.966,10.966,0,0,1-1.83683.1575A10.83138,10.83138,0,0,1,23.61581,36.793Z"/><path class="a" d="M16.04875,23.51925,0,26.02735l15.90256,2.4854a10.96578,10.96578,0,0,1-.22134-2.193A10.85063,10.85063,0,0,1,16.04875,23.51925Z"/><path class="a" d="M17.63933,32.53571,14.325,38.19625l5.37775-3.44232A10.97816,10.97816,0,0,1,17.63933,32.53571Z"/><path class="c" d="M31.25368,23.98566a5.24612,5.24612,0,1,0,.227,4.14088l2.60554.73958,17.968-2.83877L33.942,23.1653Z"/><path class="a" d="M19.68636,17.895l-5.964-3.40553,3.7506,5.85862A10.94575,10.94575,0,0,1,19.68636,17.895Z"/><path class="a" d="M35.78843,32.07382l3.59682,5.48487-5.54611-3.16411A10.984,10.984,0,0,0,35.78843,32.07382Z"/><path class="a" d="M32.9998,17.55664l5.783-3.704-3.448,6.04085A10.928,10.928,0,0,0,32.9998,17.55664Z"/><path class="b" d="M162.857,59.20624v-.01016c0-.556.45905-.85181,1.12719-.85181a2.80154,2.80154,0,0,1,.811.11217v-.0918c0-.47431-.29075-.71916-.78549-.71916a1.8361,1.8361,0,0,0-.8008.19383l-.11735-.32133a2.17714,2.17714,0,0,1,.95895-.21936,1.15712,1.15712,0,0,1,.85182.29074,1.041,1.041,0,0,1,.27032.77023v1.61177h-.37745v-.39782a1.15583,1.15583,0,0,1-.95384.45393A.8881.8881,0,0,1,162.857,59.20624Zm1.94332-.204v-.25506a2.75083,2.75083,0,0,0-.77533-.11218c-.49474,0-.77017.21421-.77017.54575V59.191c0,.33154.306.52532.66309.52532A.79724.79724,0,0,0,164.8003,59.00225Z"/><path class="b" d="M168.01427,56.401h1.51995a1.31138,1.31138,0,0,1,.93341.31623.79276.79276,0,0,1,.22953.57128v.01016a.86193.86193,0,0,1-.56618.82634c.42335.1275.76512.37234.76512.862v.01021c0,.61209-.51517.97422-1.29555.97422h-1.58628Zm2.27485.94357c0-.35192-.28053-.58144-.79059-.58144h-1.08645v1.22921h1.05586c.48453,0,.82118-.21931.82118-.63756Zm-.74979,1.00485h-1.12725v1.25986h1.19863c.5407,0,.87735-.23974.87735-.63762v-.01016C170.48806,58.57379,170.16162,58.34937,169.53933,58.34937Z"/><path class="b" d="M171.67137,58.66049v-.01021a1.30077,1.30077,0,0,1,1.265-1.372,1.2553,1.2553,0,0,1,1.22927,1.39246,1.02225,1.02225,0,0,1-.00511.1275h-2.09124a.92091.92091,0,0,0,.9283.89261,1.09129,1.09129,0,0,0,.83139-.37234l.24485.21931a1.36128,1.36128,0,0,1-1.08645.49479A1.31075,1.31075,0,0,1,171.67137,58.66049Zm2.09635-.153a.86837.86837,0,0,0-.84161-.89767.909.909,0,0,0-.85686.89767Z"/><path class="b" d="M175.05873,57.33436h.39278v.68857a1.12917,1.12917,0,0,1,1.07623-.73447v.4233h-.03058a1.06314,1.06314,0,0,0-1.04565,1.2089v1.0507h-.39278Z"/><path class="b" d="M177.32345,56.24792h.3927v2.57071l1.42311-1.48427h.48963l-1.10682,1.1323,1.14256,1.5047h-.46926l-.94362-1.22927-.5356.5407v.68857h-.3927Z"/><path class="b" d="M180.46539,56.24792h.39276v3.72344h-.39276Z"/><path class="b" d="M181.812,58.66049v-.01021a1.30072,1.30072,0,0,1,1.26491-1.372,1.25527,1.25527,0,0,1,1.22926,1.39246,1.02225,1.02225,0,0,1-.00511.1275h-2.09124a.92091.92091,0,0,0,.9283.89261,1.09128,1.09128,0,0,0,.83139-.37234l.24486.21931a1.36112,1.36112,0,0,1-1.08646.49479A1.31071,1.31071,0,0,1,181.812,58.66049Zm2.09635-.153a.86841.86841,0,0,0-.84161-.89767.90905.90905,0,0,0-.85692.89767Z"/><path class="b" d="M187.04576,57.33436h.41825l-1.10682,2.7237c-.22441.54575-.47947.74469-.87729.74469a1.19833,1.19833,0,0,1-.56107-.13261l.13261-.31112a.82521.82521,0,0,0,.41314.09692c.23463,0,.38255-.12245.54064-.4948l-1.19863-2.62678h.43357l.95889,2.19832Z"/><path class="b" d="M189.93271,58.19634v-.01022a1.79876,1.79876,0,0,1,1.80565-1.8464,1.85823,1.85823,0,0,1,1.39246.56618l-.27542.2958a1.55188,1.55188,0,0,0-1.12214-.48963,1.39987,1.39987,0,0,0-1.38231,1.46384v.01021a1.40885,1.40885,0,0,0,1.38231,1.47412,1.55,1.55,0,0,0,1.15272-.51517l.26521.26011a1.8591,1.8591,0,0,1-1.42815.6274A1.7809,1.7809,0,0,1,189.93271,58.19634Z"/><path class="b" d="M193.77918,58.6656v-.01022a1.37463,1.37463,0,0,1,2.74923-.01021v.01021a1.3693,1.3693,0,0,1-1.38231,1.3772A1.35089,1.35089,0,0,1,193.77918,58.6656Zm2.34624,0v-.01022a.99791.99791,0,0,0-.97932-1.03033.97326.97326,0,0,0-.964,1.02012v.01021a.9893.9893,0,0,0,.97422,1.02523A.973.973,0,0,0,196.12542,58.6656Z"/><path class="b" d="M197.4414,57.33436h.39276v.44373a.96335.96335,0,0,1,.85176-.49984.89583.89583,0,0,1,.84671.52532,1.051,1.051,0,0,1,.92831-.52532.94779.94779,0,0,1,.97932,1.06091v1.6322h-.39271V58.431c0-.51006-.25506-.7957-.68353-.7957a.73481.73481,0,0,0-.72426.81613v1.52H199.247V58.42075c0-.49473-.2601-.78548-.67835-.78548a.7642.7642,0,0,0-.73448.83139v1.5047h-.39276Z"/><path class="b" d="M202.49665,57.33436h.39277v.53043a1.18553,1.18553,0,0,1,1.0099-.58654,1.2862,1.2862,0,0,1,1.25985,1.36692v.01021a1.291,1.291,0,0,1-1.25985,1.37209,1.18974,1.18974,0,0,1-1.0099-.56107v1.321h-.39277Zm2.2596,1.32613v-.01021a.94958.94958,0,0,0-.92831-1.02012.98328.98328,0,0,0-.95384,1.015v.01021a.98141.98141,0,0,0,.95384,1.02012A.93057.93057,0,0,0,204.75625,58.66049Z"/><path class="b" d="M205.8886,59.20624v-.01016c0-.556.459-.85181,1.12719-.85181a2.80154,2.80154,0,0,1,.811.11217v-.0918c0-.47431-.29075-.71916-.78548-.71916a1.8364,1.8364,0,0,0-.80082.19383l-.11727-.32133a2.1766,2.1766,0,0,1,.95888-.21936,1.15715,1.15715,0,0,1,.85182.29074,1.041,1.041,0,0,1,.27032.77023v1.61177h-.37745v-.39782a1.15571,1.15571,0,0,1-.95378.45393A.88812.88812,0,0,1,205.8886,59.20624Zm1.94331-.204v-.25506a2.75066,2.75066,0,0,0-.77527-.11218c-.49479,0-.77022.21421-.77022.54575V59.191c0,.33154.30607.52532.66309.52532A.79721.79721,0,0,0,207.83191,59.00225Z"/><path class="b" d="M209.24027,57.33436h.39272v.45905a.99862.99862,0,0,1,.90283-.51516.96325.96325,0,0,1,1.0099,1.0558v1.63731H211.153V58.431a.7029.7029,0,0,0-.72943-.7957.77588.77588,0,0,0-.79059.82628v1.50981h-.39272Z"/><path class="b" d="M214.48367,57.33436h.41825l-1.10682,2.7237c-.2244.54575-.47947.74469-.87728.74469a1.19837,1.19837,0,0,1-.56108-.13261l.13261-.31112a.82521.82521,0,0,0,.41314.09692c.23463,0,.38256-.12245.54064-.4948l-1.19863-2.62678h.43357l.95889,2.19832Z"/><rect class="b" x="160.02668" y="56.00197" width="0.14735" height="4.41427"/><path class="b" d="M140.82682,10.2307l5.274,13.51749-3.13631,7.29953h2.081L153.04,10.2307h-2.22043l-3.88669,11.38063L143.0473,10.2307Zm-6.24541,1.44324c3.19185,0,3.33015,2.3315,3.33015,4.80164h-7.21684c.08276-2.49788.66762-4.80164,3.88669-4.80164m-5.82942,5.4959c0,3.99719,1.138,7.21649,5.82942,7.21649a11.243,11.243,0,0,0,4.57921-.83168V21.88873a10.61284,10.61284,0,0,1-4.57921.77731c-3.13747,0-3.77561-2.19269-3.88669-4.6084h9.16073v-.8878c0-3.99689-.55538-7.21654-5.274-7.21654-4.69144,0-5.82942,3.21965-5.82942,7.21654m-2.33156,7.21649V22.80456c-.86029,0-1.1652-.27769-1.1652-1.24935V3.29132h-1.88836V21.33306c0,2.22159,1.05523,3.05327,3.05356,3.05327m-5.4962-14.15563h-2.60809l-6.27379,6.21767V3.29132h-1.88719V24.10951h1.88719V18.7241l1.7478-1.6651,5.469,7.05051h2.41542l-6.7181-8.1607Zm-12.93431-.13911a10.11079,10.11079,0,0,0-1.66562-.13829,7.526,7.526,0,0,0-4.46813,1.44318l-.41657-1.16578h-1.08273V24.10951h1.94331V12.56226a7.51616,7.51616,0,0,1,4.02412-.88832,5.36536,5.36536,0,0,1,1.66562.22215ZM92.30748,11.67394c3.19243,0,3.331,2.3315,3.331,4.80164H88.422c.08305-2.49788.666-4.80164,3.88553-4.80164m-5.82913,5.4959c0,3.99719,1.13827,7.21649,5.82913,7.21649a11.24674,11.24674,0,0,0,4.58008-.83168V21.88873a10.61538,10.61538,0,0,1-4.58008.77731c-3.136,0-3.77445-2.19269-3.88553-4.6084h9.15957v-.8878c0-3.99689-.55538-7.21654-5.274-7.21654-4.69086,0-5.82913,3.21965-5.82913,7.21654m-4.968-8.38261c0,1.77646-.777,3.60812-3.91362,3.60812H72.40634V5.0397h4.96827c3.52537,0,4.13577,1.91529,4.13577,3.74753m-9.104,5.35737h5.19042c3.41429,0,4.60787,1.304,4.60787,4.1074,0,1.99914-.74956,4.10826-4.66311,4.10826H72.40634Zm-1.88725,9.96491h6.77218c5.19076,0,6.96746-2.60925,6.96746-5.85751,0-2.21991-1.02719-4.49645-3.41487-5.13436a4.59031,4.59031,0,0,0,2.72062-4.33041c0-3.02524-1.6098-5.49591-6.467-5.49591H70.51909Z"/></svg>