<?xml version="1.0" encoding="utf-8"?>
<!-- Generator: Adobe Illustrator 26.0.1, SVG Export Plug-In . SVG Version: 6.00 Build 0)  -->
<svg version="1.1" id="Layer_1" xmlns="http://www.w3.org/2000/svg" xmlns:xlink="http://www.w3.org/1999/xlink" x="0px" y="0px"
	 viewBox="0 0 436 500" style="enable-background:new 0 0 436 500;" xml:space="preserve">
<style type="text/css">
	.st0{fill-rule:evenodd;clip-rule:evenodd;}
</style>
<path class="st0" d="M413.2,13.2C409.4,5,401,0,390.9,0h-39c-11.3,0-19.8,4.6-24.3,12.8l-57.8,84.5l50.6,69.2l88.4-126.8
	C418.5,27.9,415.1,17.3,413.2,13.2 M108.3,11.8L108.3,11.8C99.5,0,87.7,0,83.9,0H45.7c-9.8,0-17.8,4.5-22,12.3
	c-4.3,8-3.4,17.6,2.6,26.6l141.4,196L5.1,461.7c-5.7,8.5-6.5,18-2.2,26c4.2,7.8,12.2,12.3,22,12.3h39c10,0,18.9-5.2,23.3-13.4
	l182-250.8L108.3,11.8z M432.7,463.7L319.2,308l-49.9,68.8L359,496.5l2.3,1c3.6,1.6,7.4,2.4,11.3,2.5h38.2c9.2,0,17-4.1,21.5-11.2
	C436.9,481.4,437,472.3,432.7,463.7"/>
</svg>
