<?xml version="1.0" encoding="utf-8"?>
<!-- Generator: Adobe Illustrator 26.0.2, SVG Export Plug-In . SVG Version: 6.00 Build 0)  -->
<svg version="1.1" id="Layer_1" xmlns="http://www.w3.org/2000/svg" xmlns:xlink="http://www.w3.org/1999/xlink" x="0px" y="0px"
	 viewBox="0 0 371.5 500" style="enable-background:new 0 0 371.5 500;" xml:space="preserve">
<path d="M185.2,293.8l-54.5-41h109L185.2,293.8z M223.8,335.5c0,2.4-2.1,4.1-4.5,4.1s-4.1-2.1-4.1-4.5s2.1-4.1,4.1-4.1
	C221.7,331,223.8,333.1,223.8,335.5L223.8,335.5 M252.4,281c-1,5.2-0.7,21,0,51.7c0.7,30.7-17.2,43.1-32.8,43.1
	s-33.1-13.8-33.4-42.1c-0.3-28.3,14.8-33.1,20.7-33.1c6.2-0.7,12.1,2.4,15.5,7.6c4.8,6.6,3.4,19,3.4,19c-2.4-3.1-5.5-4.8-9.3-5.5
	c-5.2,0-9,4.5-9,15.5c-0.3,6.6,5.2,12.1,11.7,12.4c0.3,0,1,0,1.4,0c9.3,0,10.7-10.3,10.7-10.3v-44.1c0-5.5,2.1-10.3,8.3-16.2
	c5.5-5.2,15.5-5.2,15.5-5.2C253.8,276.2,253.1,278.6,252.4,281 M184.8,391.7c-1.7,0-7.6-14.1-7.6-17.2c0-3.4,5.5-12.1,7.6-12.1
	c1.7,0,8.3,7.6,8.3,11.7C193.1,378.2,186.5,391.7,184.8,391.7 M146.5,335.5c0-2.4,2.1-4.1,4.5-4.1s4.1,2.1,4.1,4.5
	c0,2.4-2.1,4.1-4.1,4.1C148.6,340,146.5,337.9,146.5,335.5 M151,375.8c-15.5,0-33.8-12.4-32.8-43.1c0.7-30.7,1-46.5,0-51.7
	c-0.7-2.4-1.4-4.8-2.4-7.2c0,0,10,0,15.5,5.2c6.2,5.5,8.3,10.7,8.3,16.2v44.1c0,0,1.4,10.3,10.7,10.3c6.6,0.7,12.4-4.1,13.1-11
	c0-0.3,0-1,0-1.4c0-11-3.8-15.5-9-15.5c-3.8,0.7-6.9,2.4-9.3,5.5c0,0-1.4-12.1,3.4-19c3.4-5.2,9.3-8.3,15.5-7.6
	c5.9,0,21,5.2,20.7,33.1C183.8,362,166.5,375.8,151,375.8 M248.2,260.7c-13.4,6.9-63.1,45.9-63.1,45.9l0,0
	c-2.1-1.4-50.3-39.7-63.4-46.2c-9.3-4.1-19.3-6.6-29.3-7.6c2.1,4.8,3.8,9.7,5.5,14.8c2.8,8.6,1.4,64.1,1.4,64.1s1,25.9,9.7,38.6
	c9,12.8,17.6,22.8,43.1,22.8c5.2,0,10.3,0,15.2,0h7.2c6.2,1,11,8.6,11,8.6s4.5-7.2,11-8.6h22.4c25.5,0,34.1-9.7,43.1-22.4
	c9-12.8,9.7-38.6,9.7-38.6s-2.1-55.5,0.7-64.1c1.4-5.2,3.4-10,5.5-14.8C267.6,253.8,257.6,256.5,248.2,260.7 M185.8,439.6
	c-64.1,0-117.6-48.3-124.8-111.7c-1-9.3-1-18.6,0-27.6c6.9-62.8,59.3-110.3,122.4-111.7c67.9-1.4,125.8,54.1,127.9,121.7
	c2.1,69.3-52.8,127.2-122.1,129.3C188.3,439.3,186.9,439.6,185.8,439.6 M185.8,127.6c-46.2,0-90.7,17.2-124.8,48.3V0L0,0.7v325.1
	c0,1.4,0.3,3.1,0.3,4.5c9,100.7,96.9,175.8,197.6,169.3c93.4-5.9,169.3-83.4,173.4-176.9c4.8-102.7-74.5-190-177.2-194.8
	C191.7,127.9,188.6,127.6,185.8,127.6"/>
</svg>
