<svg viewBox="0 0 346 500" fill="none" xmlns="http://www.w3.org/2000/svg">
<path d="M119.4 2.09479C145.029 -0.173711 170.788 -0.600156 196.479 0.817442C217.882 1.96767 239.757 3.98496 260.562 9.47369C264.983 10.5692 269.338 11.917 273.605 13.5098C281.932 16.7318 290.307 21.6023 294.343 29.9297C297.444 36.1314 298.385 43.7253 299.575 50.4854C300.955 58.3486 302.219 66.2326 303.565 74.1094C304.291 78.401 305.219 83.0292 308.361 86.0088C311.502 88.9888 316.15 89.6072 320.246 91.0469C333.026 95.5469 338.63 107.311 341.099 119.762L343.85 133.639C347.206 146.998 345.316 160.249 335.819 170.412C329.852 176.796 321.834 179.588 313.446 181.223C311.319 181.633 309.379 182.717 307.916 184.315C306.453 185.912 305.543 187.939 305.321 190.095L300.861 233.562L291.134 328.405C288.161 357.433 285.183 386.458 282.201 415.481C281.305 424.257 280.408 433.029 279.511 441.802C276.37 472.185 254.36 491.77 225.026 497.153C205.23 500.801 184.902 500.027 164.777 499.702C149.077 499.448 133.229 498.937 117.758 496.446C91.269 492.197 69.8792 477.103 66.8049 449.093C66.24 443.968 65.7358 438.827 65.1975 433.702C62.4172 406.943 59.6301 380.19 56.8361 353.441L47.0285 259.271L42.2863 213.745C41.4658 205.875 49.417 199.928 56.4123 199.619C64.5849 199.25 69.7713 206.42 70.5383 213.745C70.6391 214.768 70.7458 215.77 70.8537 216.785L77.2512 278.191L87.1389 373.097C88.9016 390.164 90.6793 407.232 92.4729 424.304C93.818 437.201 95.1841 452.115 105.066 461.638C116.312 472.482 134.157 473.827 148.727 473.745C162.375 473.671 176.016 474.276 189.664 474.202C201.975 474.093 214.239 472.658 226.243 469.926C239.347 466.947 248.327 458.799 250.883 445.535C252.504 437.099 252.624 428.296 253.486 419.758C254.382 411.091 255.279 402.42 256.176 393.745C259.355 362.953 262.516 332.156 265.654 301.357C268.663 272.03 271.672 242.7 274.681 213.368L276.174 198.853C276.328 197.356 276.145 195.843 275.638 194.426C275.131 193.009 274.314 191.723 273.246 190.663C272.178 189.603 270.886 188.795 269.466 188.299C268.045 187.802 266.531 187.63 265.035 187.794C260.246 188.323 255.45 188.812 250.648 189.261C191.672 194.753 132.276 193.891 73.4836 186.69C58.5175 184.834 43.5915 182.655 28.7463 179.965C12.9659 177.113 1.99423 164.359 0.184769 148.666C-0.656044 141.395 1.56441 133.773 2.99043 126.69C4.41643 119.607 5.36456 112.43 8.55293 105.838C11.6522 99.654 16.5641 94.5628 22.632 91.2422C30.0244 87.2064 37.8403 86.5328 46.0129 87.878C52.7731 88.9745 59.506 90.2262 66.2795 91.2422C68.2975 91.5472 70.3162 91.8405 72.3342 92.1231C73.1958 92.244 77.4453 92.8026 74.9836 92.4864C78.1587 92.8965 81.3339 93.3004 84.509 93.6768C113.835 97.0767 143.332 98.7924 172.855 98.8155C180.272 98.8292 187.691 98.7371 195.113 98.5401C209.678 98.1632 224.214 97.3711 238.721 96.1651C246.021 95.5595 253.311 94.8423 260.589 94.0128C264.284 93.5956 267.975 93.1471 271.661 92.6671L272.824 92.5128L274.001 92.3516H274.056C274.727 92.2582 275.371 92.0282 275.949 91.6749C276.527 91.3215 277.027 90.8526 277.415 90.2979C277.804 89.7429 278.074 89.1143 278.209 88.4503C278.344 87.7865 278.341 87.1012 278.199 86.4385C276.271 77.4699 274.345 68.5009 272.421 59.5323C272.411 59.4621 272.396 59.3921 272.374 59.3243L271.56 55.5235C270.921 52.544 270.397 49.3893 269.239 46.5508C265.607 37.6046 255.12 37.0259 246.954 35.2501C241.443 34.0662 235.903 33.0592 230.333 32.2296L228.423 31.9542C227.474 31.8398 226.526 31.7053 225.584 31.5909C223.122 31.2882 220.66 31.0194 218.185 30.7637C206.676 29.5933 195.119 28.9136 183.557 28.5772C159.74 27.787 135.897 28.6275 112.196 31.0928C109.472 31.4157 106.719 31.9073 103.982 32.0889H103.942C102.475 32.3087 101.014 32.5321 99.5559 32.7608C95.1837 33.4469 90.8254 34.2348 86.5002 35.1563H86.4055C85.9021 35.2681 85.451 35.548 85.1281 35.9503C84.8053 36.3526 84.6301 36.8534 84.6301 37.3692C84.6301 37.8848 84.8055 38.385 85.1281 38.7872C85.451 39.1896 85.9021 39.4702 86.4055 39.5821C91.3964 40.6384 96.4416 41.5122 101.487 42.2725L103.955 42.629L104.473 42.7032L106.855 43.0059C109.356 43.3155 111.859 43.5913 114.367 43.8536C119.883 44.4142 125.413 44.8761 130.955 45.2393C143.103 46.0395 155.285 46.3829 167.46 46.3829C179.85 46.3625 192.247 45.9654 204.611 45.1046C210.131 44.7277 215.638 44.2433 221.131 43.6514C223.79 43.3598 226.449 43.0466 229.109 42.71L229.943 42.5889C231.1 42.4208 232.25 42.2527 233.407 42.0713C241.257 40.8673 248.198 43.9612 250.781 51.9385C252.941 58.6113 248.239 68.1898 240.914 69.3135C234.695 70.2729 228.463 71.0952 222.221 71.7813C196.979 74.4576 171.575 75.2872 146.211 74.2637C123.328 73.4361 100.128 71.4928 77.7287 66.5421C69.6843 64.8341 61.8427 62.2819 54.3342 58.9278C48.5695 56.3246 43.1338 52.389 39.925 46.8194C35.4119 38.9766 37.4299 29.2502 43.6115 22.961C48.6494 17.8421 55.4773 14.9432 62.1027 12.5284C80.2306 5.92967 100.323 3.83023 119.4 2.09479ZM231.849 218.202C241.797 218.202 250.622 220.187 259.366 223.173L239.799 430.445C239.152 438.283 235.583 445.59 229.797 450.918C224.011 456.246 216.433 459.206 208.568 459.206C208.449 459.212 180.653 460.551 171.37 460.551C162.726 460.551 136.822 459.206 136.822 459.206C128.956 459.206 121.377 456.25 115.59 450.922C109.803 445.594 106.232 438.283 105.585 430.445L87.3156 242.875C97.9595 245.844 108.957 247.359 120.007 247.381C146.422 247.381 166.803 238.664 184.763 230.976C200.779 224.121 214.642 218.196 231.849 218.202ZM70.8273 120.441C60.8449 118.928 49.1271 114.67 39.0373 115.854C32.5735 116.627 30.4884 123.872 29.3986 129.307C28.2081 135.239 25.9613 145.128 30.5354 150.038C32.9636 152.641 36.7909 153.288 40.3225 153.785C76.3631 158.877 112.383 162.92 148.787 164.164C199.653 165.832 250.701 162.051 301.015 154.585C305.502 153.919 310.043 152.587 313.056 149.722H313.049C315.144 147.738 316.404 145.028 316.568 142.148C317.099 135.535 316.641 127.706 313.204 121.854C308.193 113.264 298.997 116.055 290.703 117.542C281.394 119.21 272.05 120.674 262.674 121.935C211.23 128.822 158.689 129.556 107.016 124.848C94.9084 123.745 82.8453 122.275 70.8273 120.441ZM31.5305 151.673C31.5843 151.715 31.6343 151.763 31.6789 151.815C31.6521 151.767 31.5787 151.72 31.5783 151.673H31.5305ZM29.1291 149.312H29.1223C29.0895 149.339 29.2912 149.561 29.6066 149.857C29.3982 149.534 29.1964 149.264 29.1291 149.312ZM28.3156 143.016C28.4431 142.956 28.2075 144.051 28.1066 144.563C28.0865 143.789 28.1273 143.103 28.3156 143.016Z" fill="black"/>
</svg>
