<?xml version="1.0" encoding="utf-8"?>
<!-- Generator: Adobe Illustrator 26.0.1, SVG Export Plug-In . SVG Version: 6.00 Build 0)  -->
<svg version="1.1" id="Layer_1" xmlns="http://www.w3.org/2000/svg" xmlns:xlink="http://www.w3.org/1999/xlink" x="0px" y="0px"
	 viewBox="0 0 500 500" style="enable-background:new 0 0 500 500;" xml:space="preserve">
<path d="M385.4,460.2c-82.2,53-188.7,53-271.1,0c1,0,1.9,0.1,2.9,0.1c20.7,0,40.1-8.1,54.8-22.7c20.7-20.7,27.1-50.3,19.4-76.7
	c36.4,19.2,80.3,19.2,116.6,0.1c-2.1,7.1-3.2,14.5-3.2,22.1c0,20.6,8.1,40,22.7,54.4c14.7,14.7,34.1,22.7,54.8,22.7
	C383.4,460.3,384.4,460.3,385.4,460.2z M73.1,426.9c24.2,24.5,63.7,24.5,88.2,0s24.2-64,0-88.4c-24.2-24.5-63.7-24.5-88.2,0
	C48.9,363,48.9,402.7,73.1,426.9z M459.8,114.4c0.9,20.8-6.4,41.9-22,57.8l-0.1,0.1C423,186.9,403.5,195,382.9,195
	c-7.8,0-15.4-1.1-22.6-3.3c25.2,47.3,17.8,107.1-22.1,147.1c-24.5,24.5-24.5,64,0,88.2c24.5,24.5,64,24.5,88.4,0
	C511.6,342,522.6,211.3,459.8,114.4z M426.6,73.2C329-24.4,171-24.4,73.4,73.2c-84.9,84.9-96,215.4-33.4,312.2
	c-0.7-20.7,6.8-41.6,22.5-57.5c14.7-14.7,34.2-22.8,54.8-22.8c7.7,0,15.1,1.1,22.3,3.3c-24.8-47.2-17.4-107,22.2-146.8
	c48.7-48.9,127.9-48.9,176.8,0c24.5,24.5,64,24.5,88.4,0C450.9,137.4,450.9,97.7,426.6,73.2z"/>
</svg>
