<svg viewBox="0 0 500 321" fill="none" xmlns="http://www.w3.org/2000/svg">
<path d="M497.907 106.443C497.907 69.787 481.433 0.00371765 397.928 0.00371765C372.323 0.00371765 357.359 5.58771 344.042 13.2615C327.636 23.025 315.04 32.1033 295.443 49.9175C280.409 22.3741 253.158 0.00371765 206 0.00371765C181.46 0.00371765 166.049 5.58771 153.144 12.8846C134.61 23.4019 125.172 32.4802 110.482 43.9908C105.23 23.0593 89.8546 -0.33887 53.1645 0.00371765C44.3781 0.00371765 36.0379 2.05914 27.9723 4.55995C16.7834 16.0364 8.03131 29.6368 0 43.9566V59.2698C9.85037 62.4558 16.7834 70.8148 16.7834 86.1623V195.034C16.7834 235.116 16.0626 278.418 14.724 321C45.1332 321 69.2271 320.315 96.8219 316.821C112.609 314.697 114.017 309.49 114.017 296.917V101.476C129.084 86.8475 147.24 74.2749 170.613 74.2749C190.624 74.2749 208.745 87.1558 208.745 118.947V194.999C208.745 235.082 208.093 278.383 206.686 320.966C236.787 320.966 260.914 320.281 288.853 316.787C304.572 314.285 305.945 310.826 305.945 298.596V101.784C320.292 87.4984 337.796 74.2406 361.58 74.2406C381.865 74.2406 400.741 88.5261 400.741 119.221V306.68C400.741 316.821 405.272 320.966 416.118 320.966C451.092 320.966 483.285 316.787 500 315.382C498.594 288.147 497.907 245.941 497.907 211.375V106.34C497.907 106.34 497.907 143.1 497.907 106.443Z" fill="black"/>
</svg>
