<svg viewBox="0 0 500 500" fill="none" xmlns="http://www.w3.org/2000/svg">
<path fill-rule="evenodd" clip-rule="evenodd" d="M223.037 1.42756C297.77 -6.63719 368.662 19.9069 423.518 69.9474C424.498 70.8361 424.499 70.8368 425.5 71.7434C449.364 93.8296 468.008 123.17 480.519 153.008L482.462 157.589C490.456 177.217 495.853 198.704 498.154 219.771L498.572 223.043C505.783 289.865 485.265 356.023 443.515 408.172C439.151 413.402 434.643 418.493 430.053 423.525C429.164 424.505 429.164 424.506 428.258 425.506C406.171 449.371 376.83 468.015 346.992 480.525L342.411 482.469C322.783 490.463 301.297 495.86 280.229 498.161L276.957 498.579C210.135 505.79 143.977 485.271 91.8278 443.522C86.5978 439.157 81.5074 434.649 76.4754 430.059C75.4954 429.171 75.495 429.171 74.4949 428.264C50.6305 406.178 31.9855 376.837 19.4748 346.999L17.5311 342.418C9.53721 322.79 4.14017 301.303 1.83921 280.236L1.42096 276.963C-5.78984 210.142 14.7287 143.983 56.4779 91.8344C60.8428 86.6043 65.3504 81.5141 69.9408 76.482C70.5333 75.8284 71.1264 75.1749 71.7368 74.5015C93.8232 50.6373 123.163 31.992 153.001 19.4814L157.582 17.5377C177.21 9.54372 198.697 4.14682 219.764 1.84581L223.037 1.42756ZM361.176 156.97C328.116 129.94 280.251 118.589 238.546 128.765L234.959 129.784C232.832 130.382 230.706 130.984 228.582 131.594C231.101 134.114 231.102 134.114 234.069 135.979C240.526 139.871 246.592 143.691 251.739 149.245C267.027 168.041 271.161 187.252 268.892 210.954C265.753 228.675 255.857 245.767 241.179 256.303C222.041 268.732 201.028 271.968 178.667 268.112C158.629 262.143 144.234 248.752 134.101 230.903L132.846 228.59L130.327 232.369C123.118 253.996 124.019 281.57 129.107 303.571L130.327 307.95C137.436 333.641 150.293 357.05 169.761 375.481L173.156 378.492C189.414 392.932 208.246 403.794 229.133 410.033L233.621 411.244C248.38 415.525 262.994 415.68 278.271 415.382C314.445 414.143 350.428 398.246 375.429 371.854L378.484 368.415C407.265 336.021 416.234 298.509 415.171 256.054C413.77 224.186 396.909 189.767 373.697 168.061L370.926 165.606C367.715 162.676 364.497 159.775 361.176 156.97Z" fill="black"/>
</svg>
