<?xml version="1.0" encoding="utf-8"?>
<!-- Generator: Adobe Illustrator 26.0.1, SVG Export Plug-In . SVG Version: 6.00 Build 0)  -->
<svg version="1.1" id="Layer_1" xmlns="http://www.w3.org/2000/svg" xmlns:xlink="http://www.w3.org/1999/xlink" x="0px" y="0px"
	 viewBox="0 0 346.7 344.8" style="enable-background:new 0 0 346.7 344.8;" xml:space="preserve">
<style type="text/css">
	.st0{fill:#FFFFFF;}
	.st1{fill:none;stroke:#003BFF;stroke-width:3;stroke-miterlimit:10;enable-background:new    ;}
	.st2{opacity:0.33;fill:#003BFF;enable-background:new    ;}
	.st3{fill:#003BFF;}
	.st4{enable-background:new    ;}
	.st5{fill:#212529;}
	.st6{fill:none;stroke:#ADB5BD;stroke-width:3;stroke-miterlimit:10;enable-background:new    ;}
</style>
<path class="st0" d="M227.9,343.3c-19.1,0-37.8-4.6-54.5-13.4c-16.8,8.8-35.5,13.4-54.5,13.4C54.2,343.3,1.6,290.7,1.6,226
	c0-40,20.5-77.3,54.1-98.8c-0.2-2.8-0.3-5.7-0.3-8.5C55.4,54,108,1.4,172.7,1.4S290,54,290,118.7c0,2.5-0.1,5-0.2,7.5
	c34.4,21.3,55.6,58.9,55.6,99.7C345.2,290.7,292.6,343.3,227.9,343.3z"/>
<circle class="st1" cx="118.8" cy="226" r="107.3"/>
<circle class="st1" cx="172.6" cy="118.8" r="107.3"/>
<circle class="st1" cx="227.9" cy="226" r="107.3"/>
<g>
	<path class="st2" d="M121.4,213.1c4.1-33.9,23.9-62.9,52-79.5c-16-9.5-34.6-14.9-54.5-14.9c-19.1,0-37.1,5-52.6,13.8
		C70.6,167.4,91.8,197,121.4,213.1z"/>
	<path class="st2" d="M121.4,213.1c4.1-33.9,23.9-62.9,52-79.5c-16-9.5-34.6-14.9-54.5-14.9c-19.1,0-37.1,5-52.6,13.8
		C70.6,167.4,91.8,197,121.4,213.1z"/>
	<path class="st2" d="M226.1,226c0-4.6-0.3-9.2-0.9-13.7c-15.6,8.8-33.5,13.8-52.6,13.8c-18.6,0-36-4.7-51.2-13
		c-0.5,4.2-0.8,8.5-0.8,12.9c0,39.3,21.2,73.7,52.8,92.4C204.9,299.7,226.1,265.3,226.1,226z"/>
	<path class="st2" d="M226.1,226c0-4.6-0.3-9.2-0.9-13.7c-15.6,8.8-33.5,13.8-52.6,13.8c-18.6,0-36-4.7-51.2-13
		c-0.5,4.2-0.8,8.5-0.8,12.9c0,39.3,21.2,73.7,52.8,92.4C204.9,299.7,226.1,265.3,226.1,226z"/>
	<path class="st2" d="M173.4,133.6c27.9,16.5,47.6,45.2,51.9,78.7c29.1-16.4,49.7-46,53.9-80.6c-15.2-8.3-32.7-13-51.2-13
		C208,118.7,189.3,124.1,173.4,133.6z"/>
	<path class="st2" d="M173.4,133.6c27.9,16.5,47.6,45.2,51.9,78.7c29.1-16.4,49.7-46,53.9-80.6c-15.2-8.3-32.7-13-51.2-13
		C208,118.7,189.3,124.1,173.4,133.6z"/>
	<path class="st2" d="M173.4,133.6c-28.1,16.6-47.9,45.6-52,79.5c15.2,8.3,32.7,13,51.2,13c19.1,0,37.1-5,52.6-13.8
		C221,178.8,201.2,150.1,173.4,133.6z"/>
	<path class="st2" d="M173.4,133.6c-28.1,16.6-47.9,45.6-52,79.5c15.2,8.3,32.7,13,51.2,13c19.1,0,37.1-5,52.6-13.8
		C221,178.8,201.2,150.1,173.4,133.6z"/>
	<path class="st2" d="M173.4,133.6c-28.1,16.6-47.9,45.6-52,79.5c15.2,8.3,32.7,13,51.2,13c19.1,0,37.1-5,52.6-13.8
		C221,178.8,201.2,150.1,173.4,133.6z"/>
</g>
<path class="st3" d="M173.4,133.6c-28,16.6-47.9,45.6-51.9,79.4c15.2,8.3,32.6,13,51.2,13c19.1,0,37.1-5,52.6-13.8
	C220.9,178.7,201.2,150.1,173.4,133.6z"/>
<g class="st4">
	<path class="st5" d="M31.6,262.2l-2.5-20.6H33l1.5,14l1.3-14h3.9l-2.5,20.6H31.6z"/>
	<path class="st5" d="M40.7,262.2v-20.6h4v20.6H40.7z"/>
	<path class="st5" d="M45.8,262.2l2-20.6h7l2,20.6h-3.9l-0.3-3.3h-2.5l-0.2,3.3H45.8z M50.4,255.6h1.9l-0.9-10.5h-0.2L50.4,255.6z"
		/>
	<path class="st5" d="M58,241.6h5.6c1.5,0,2.6,0.4,3.3,1.1s1,1.9,1,3.6v0.9c0,2-0.7,3.1-2.1,3.5c0.9,0.2,1.5,0.7,1.8,1.6
		c0.4,0.8,0.5,1.9,0.5,3.2c0,2.2-0.3,3.9-1,5s-1.8,1.7-3.6,1.7h-5.6L58,241.6L58,241.6z M62.9,249.3c0.4,0,0.6-0.1,0.7-0.4
		s0.2-0.6,0.2-1.1v-2.1c0-0.7-0.3-1-0.9-1H62v4.6H62.9z M64.1,257v-2.6c0-0.6-0.1-1.1-0.3-1.4c-0.2-0.3-0.5-0.5-1-0.5H62v6h0.4
		C63.5,258.6,64.1,258.1,64.1,257z"/>
	<path class="st5" d="M69.3,262.2v-20.6h4v20.6H69.3z"/>
	<path class="st5" d="M74.9,262.2v-20.6H79v17.1h4.2v3.5H74.9z"/>
	<path class="st5" d="M84.3,262.2v-20.6h4v20.6H84.3z"/>
	<path class="st5" d="M91.7,262.2v-16.7h-2.4v-4h9v4h-2.4v16.7H91.7z"/>
	<path class="st5" d="M101.9,262.2v-6.8l-3.3-13.8h4.1l1.2,7l1.2-7h4.1l-3.3,13.8v6.8H101.9z"/>
</g>
<g class="st4">
	<path class="st5" d="M228.4,262.2v-20.6h8.3v4h-4.1v3.3h3.9v4h-3.9v9.4L228.4,262.2L228.4,262.2z"/>
	<path class="st5" d="M237.9,262.2v-20.6h8.3v4h-4.1v4h3.9v3.9h-3.9v4.7h4.3v4H237.9L237.9,262.2z"/>
	<path class="st5" d="M247.3,262.2l2-20.6h7l2,20.6h-4l-0.3-3.3h-2.5l-0.2,3.3H247.3z M251.8,255.6h1.9l-0.9-10.5h-0.2L251.8,255.6z
		"/>
	<path class="st5" d="M260.3,261c-0.8-0.9-1.2-2.4-1.2-4.5v-2h4.1v2.6c0,1,0.3,1.5,1,1.5c0.4,0,0.6-0.1,0.8-0.3
		c0.1-0.2,0.2-0.6,0.2-1.1c0-0.7-0.1-1.2-0.2-1.7c-0.2-0.4-0.4-0.8-0.6-1.1c-0.2-0.3-0.7-0.8-1.3-1.4l-1.8-1.8
		c-1.4-1.3-2.1-2.8-2.1-4.5c0-1.8,0.4-3.1,1.2-4c0.8-0.9,2-1.4,3.5-1.4c1.9,0,3.2,0.5,4,1.5s1.2,2.5,1.2,4.6h-4.2V246
		c0-0.3-0.1-0.5-0.2-0.6c-0.2-0.2-0.4-0.2-0.6-0.2c-0.3,0-0.6,0.1-0.7,0.3c-0.1,0.2-0.2,0.4-0.2,0.7c0,0.7,0.4,1.4,1.2,2.1l2.4,2.3
		c0.6,0.5,1,1.1,1.4,1.5s0.7,1.1,0.9,1.7c0.2,0.7,0.3,1.5,0.3,2.4c0,2-0.4,3.6-1.1,4.6s-2,1.6-3.7,1.6
		C262.5,262.4,261.1,261.9,260.3,261z"/>
	<path class="st5" d="M270.3,262.2v-20.6h4v20.6H270.3z"/>
	<path class="st5" d="M276,241.6h5.6c1.5,0,2.6,0.4,3.3,1.1c0.7,0.7,1,1.9,1,3.6v0.9c0,2-0.7,3.1-2.1,3.5c0.9,0.2,1.5,0.7,1.8,1.6
		c0.4,0.8,0.5,1.9,0.5,3.2c0,2.2-0.3,3.9-1,5s-1.8,1.7-3.6,1.7h-5.6v-20.6L276,241.6L276,241.6z M280.8,249.3c0.4,0,0.6-0.1,0.7-0.4
		s0.2-0.6,0.2-1.1v-2.1c0-0.7-0.3-1-0.9-1h-0.9v4.6H280.8z M282,257v-2.6c0-0.6-0.1-1.1-0.3-1.4c-0.2-0.3-0.5-0.5-1-0.5h-0.8v6h0.4
		C281.5,258.6,282,258.1,282,257z"/>
	<path class="st5" d="M287.3,262.2v-20.6h4v20.6H287.3z"/>
	<path class="st5" d="M292.9,262.2v-20.6h4.1v17.1h4.2v3.5H292.9z"/>
	<path class="st5" d="M302.3,262.2v-20.6h4v20.6H302.3z"/>
	<path class="st5" d="M309.7,262.2v-16.7h-2.4v-4h9v4h-2.4v16.7H309.7z"/>
	<path class="st5" d="M319.9,262.2v-6.8l-3.3-13.8h4.1l1.2,7l1.2-7h4.1l-3.3,13.8v6.8H319.9z"/>
</g>
<g class="st4">
	<path class="st5" d="M116.4,62.3h5.7c1.5,0,2.6,0.4,3.3,1.2c0.7,0.8,1.1,2,1.1,3.6v9.6c0,2-0.3,3.6-1.1,4.6c-0.7,1-1.9,1.5-3.6,1.5
		h-5.5L116.4,62.3L116.4,62.3z M121.2,79.3c0.8,0,1.1-0.4,1.1-1.1V67.5c0-0.5,0-0.8-0.1-1s-0.2-0.4-0.4-0.5s-0.5-0.1-0.9-0.1h-0.5
		v13.4C120.4,79.3,121.2,79.3,121.2,79.3z"/>
	<path class="st5" d="M128.2,82.9V62.3h8.3v4h-4.1v4h3.9v3.9h-3.9v4.7h4.3v4H128.2z"/>
	<path class="st5" d="M138.9,81.7c-0.8-0.9-1.2-2.4-1.2-4.5v-2h4.1v2.6c0,1,0.3,1.5,1,1.5c0.4,0,0.6-0.1,0.8-0.3s0.2-0.6,0.2-1.1
		c0-0.7-0.1-1.2-0.2-1.7c-0.2-0.4-0.4-0.8-0.6-1.1s-0.7-0.8-1.3-1.4l-1.8-1.8c-1.4-1.3-2.1-2.8-2.1-4.5c0-1.8,0.4-3.1,1.2-4
		s2-1.4,3.5-1.4c1.9,0,3.2,0.5,4,1.5s1.2,2.5,1.2,4.6h-4.2v-1.4c0-0.3-0.1-0.5-0.2-0.6c-0.2-0.2-0.4-0.2-0.6-0.2
		c-0.3,0-0.6,0.1-0.7,0.3c-0.2,0.2-0.2,0.4-0.2,0.7c0,0.7,0.4,1.4,1.2,2.1l2.4,2.3c0.6,0.5,1,1.1,1.4,1.5s0.7,1.1,0.9,1.7
		c0.2,0.7,0.3,1.5,0.3,2.4c0,2-0.4,3.6-1.1,4.6c-0.7,1-2,1.6-3.7,1.6C141.1,83.1,139.8,82.6,138.9,81.7z"/>
	<path class="st5" d="M149,82.9V62.3h4v20.6H149z"/>
	<path class="st5" d="M154.6,62.3h6.3c1,0,1.8,0.2,2.3,0.7c0.6,0.5,0.9,1.1,1.1,1.9s0.3,1.9,0.3,3.2c0,1.2-0.2,2.1-0.5,2.7
		c-0.3,0.7-0.8,1.1-1.6,1.4c0.6,0.1,1.1,0.4,1.4,0.9c0.3,0.5,0.4,1.2,0.4,2v7.8h-4v-8.1c0-0.6-0.1-0.9-0.3-1.1s-0.6-0.2-1.2-0.2v9.4
		h-4.2V62.3z M159.8,69.9c0.6,0,0.9-0.6,0.9-1.9c0-0.5,0-1-0.1-1.2c0-0.3-0.1-0.5-0.3-0.6c-0.1-0.1-0.3-0.2-0.6-0.2h-1v3.8
		L159.8,69.9L159.8,69.9z"/>
	<path class="st5" d="M165.5,82.9l2-20.6h7l2,20.6h-3.9l-0.3-3.3h-2.5l-0.2,3.3H165.5z M170,76.3h1.9L171,65.8h-0.2L170,76.3z"/>
	<path class="st5" d="M177.7,62.3h5.6c1.5,0,2.6,0.4,3.3,1.1s1,1.9,1,3.6v0.9c0,2-0.7,3.1-2.1,3.5c0.9,0.2,1.5,0.7,1.8,1.6
		c0.4,0.8,0.5,1.9,0.5,3.2c0,2.2-0.3,3.9-1,5s-1.8,1.7-3.6,1.7h-5.6V62.3H177.7z M182.6,70c0.4,0,0.6-0.1,0.7-0.4
		c0.1-0.3,0.2-0.6,0.2-1.1v-2.1c0-0.7-0.3-1-0.9-1h-0.9V70H182.6z M183.7,77.7v-2.6c0-0.6-0.1-1.1-0.3-1.4s-0.5-0.5-1-0.5h-0.8v6
		h0.4C183.2,79.3,183.7,78.8,183.7,77.7z"/>
	<path class="st5" d="M189,82.9V62.3h4v20.6H189z"/>
	<path class="st5" d="M194.6,82.9V62.3h4.1v17.1h4.2v3.5H194.6z"/>
	<path class="st5" d="M204,82.9V62.3h4v20.6H204z"/>
	<path class="st5" d="M211.4,82.9V66.2H209v-4h9v4h-2.4v16.7H211.4z"/>
	<path class="st5" d="M221.6,82.9v-6.8l-3.3-13.8h4.1l1.2,7l1.2-7h4.1l-3.3,13.8v6.8C225.6,82.9,221.6,82.9,221.6,82.9z"/>
</g>
<path class="st6" d="M227.9,343.3c-19.1,0-37.8-4.6-54.5-13.4c-16.8,8.8-35.5,13.4-54.5,13.4C54.1,343.3,1.5,290.7,1.5,226
	c0-40.1,20.6-77.3,54.1-98.8c-0.2-2.8-0.3-5.6-0.3-8.4c0-64.7,52.6-117.3,117.3-117.3c64.7,0,117.3,52.6,117.3,117.3
	c0,2.5-0.1,5-0.2,7.5c34.4,21.3,55.5,59,55.5,99.7C345.2,290.7,292.6,343.3,227.9,343.3z"/>
</svg>
