<?xml version="1.0" encoding="utf-8"?>
<!-- Generator: Adobe Illustrator 26.0.1, SVG Export Plug-In . SVG Version: 6.00 Build 0)  -->
<svg version="1.1" id="Layer_1" xmlns="http://www.w3.org/2000/svg" xmlns:xlink="http://www.w3.org/1999/xlink" x="0px" y="0px"
	 viewBox="0 0 125 141.2" style="enable-background:new 0 0 125 141.2;" xml:space="preserve">
<style type="text/css">
	.st0{fill:url(#SVGID_1_);}
	.st1{fill:url(#SVGID_00000180331881810552572280000006139583504975786928_);}
	.st2{fill:url(#SVGID_00000171695009477956927180000017420552679057836459_);}
	.st3{fill:url(#SVGID_00000133491958039248244790000009406906475019835794_);}
	.st4{fill:url(#SVGID_00000163790812222753914660000014570200766467608237_);}
	.st5{fill:url(#SVGID_00000085214138644658613550000009096385060157234070_);}
	.st6{fill:url(#SVGID_00000056392643880104166680000004334244166558960574_);}
	.st7{fill:url(#SVGID_00000161615071120808047690000010726232708027586460_);}
	.st8{fill:url(#SVGID_00000096776579960869644680000016725001202360953276_);}
	.st9{fill:url(#SVGID_00000007427889244344644550000015135041622657009560_);}
</style>
<g>
	
		<linearGradient id="SVGID_1_" gradientUnits="userSpaceOnUse" x1="24.4781" y1="-120.2516" x2="143.6652" y2="-1.0645" gradientTransform="matrix(1 0 0 -1 0 31.55)">
		<stop  offset="0" style="stop-color:#098DA7"/>
		<stop  offset="0.59" style="stop-color:#0DCAF0"/>
	</linearGradient>
	<path class="st0" d="M124.5,112.1c-1.8-4.3-6.4-6.9-11.1-5.7c-0.3,0.3-0.3,0.3-0.4,0.3l-27.3,9.7c-1.3,0.4-1.9,1.8-1.5,3l0,0
		c0.4,1.3,1.8,1.9,3,1.5c0,0,0,0,0.3,0l27.3-9.7c1.9-0.9,4.3,0.3,5.2,2.1v0.3c0.6,1.8-0.3,4.3-3.3,5.8l-0.3,0.3l-2.1,1.1
		c-28.7,13.6-33.2,15.8-44.4,15.8c-5.4-0.6-10.9-1.9-16-3.7l-0.9-0.3c-10-3-21.2-6.1-30.5-6.1H20c-0.4-0.9-1.8-2.1-2.7-3.4
		c-2.8-3.4-6.4-8.5-10-12.4c3.9-1.3,7.6-2.8,11.2-4.5c9.1-3.9,18.7-8,27.8-5.4c10,3.3,19.9,7.2,29.3,11.9c1.9,1.1,2.8,3.4,1.9,5.4
		c-0.9,1.9-3.3,2.8-6.3,2.1c-12.4-2.8-17.9-4.5-19.1-4.9c-1.3-0.3-2.7,0.9-2.8,2.1c0,0.9,0.3,1.8,1.1,2.4c1.1,0.4,6.9,2.1,19.4,4.9
		c5.7,1.1,10.3-1.1,12.1-5.4c1.5-4.3-0.3-9.1-4.3-11.2c-9.7-4.9-19.7-9.1-30.3-12.1c-10.9-3.3-21.2,1.5-31.2,5.8
		c-4.8,2.1-9.6,3.9-14.5,5.2c-0.9,0.3-1.5,0.9-1.8,1.8c-0.3,0.9,0,1.8,0.6,2.4c4.5,4.8,8.7,9.7,12.6,14.9c4.2,5.2,4.3,5.2,5.7,5.2
		h3.4c8.7,0,19.4,3.3,29.3,5.8l0.9,0.3c7.2,1.9,13.6,3.9,17.5,3.9c12.4,0,17.8-2.4,46.6-16l1.5-0.6c0-0.3,0.3-0.3,0.3-0.3l0.6-0.4
		C123.7,122.2,126.1,117,124.5,112.1z"/>
	
		<linearGradient id="SVGID_00000010299945093222246600000016956885359993931660_" gradientUnits="userSpaceOnUse" x1="-8.93" y1="-86.5637" x2="107.9114" y2="30.2777" gradientTransform="matrix(1 0 0 -1 0 31.55)">
		<stop  offset="0" style="stop-color:#098DA7"/>
		<stop  offset="0.59" style="stop-color:#0DCAF0"/>
	</linearGradient>
	<path style="fill:url(#SVGID_00000010299945093222246600000016956885359993931660_);" d="M50.2,57.9c2.4,2.4,3.4,3.4,3.4,8.7
		c0,1.3,1.1,2.4,2.4,2.4h18.2c1.3,0,2.4-1.1,2.7-2.4c-0.4-3.3,0.9-6.3,3.3-8.5l0.6-0.9c4.3-4.2,6.4-10,6.4-15.8
		C87.7,29,78,18.9,65.6,18.4c-12.4-0.4-22.5,9.3-23,21.7c0,0.4,0,0.9,0,1.3c0,5.8,2.7,11.7,6.9,15.7L50.2,57.9z M65.2,24.1
		c9.6,0,17.3,7.8,17.3,17.3c0.3,4.8-1.8,9.1-5.2,12.4V54l-0.9,0.9c-2.7,2.4-4.2,5.7-4.3,9.3H58.5c-0.3-3.7-1.8-7.2-4.5-9.6L53.4,54
		c-3.4-3.3-5.4-7.8-5.4-12.4C47.9,31.9,55.6,24.1,65.2,24.1z"/>
	
		<linearGradient id="SVGID_00000129177791547977694250000012805717413284988084_" gradientUnits="userSpaceOnUse" x1="4.2669" y1="-102.0455" x2="123.6954" y2="17.383" gradientTransform="matrix(1 0 0 -1 0 31.55)">
		<stop  offset="0" style="stop-color:#098DA7"/>
		<stop  offset="0.59" style="stop-color:#0DCAF0"/>
	</linearGradient>
	<path style="fill:url(#SVGID_00000129177791547977694250000012805717413284988084_);" d="M74.7,70.3H55.6c-1.3,0-2.4,1.1-2.4,2.4
		s1.1,2.4,2.4,2.4h19.1c1.3,0,2.4-1.1,2.4-2.4C77.3,71.6,76.2,70.4,74.7,70.3z"/>
	
		<linearGradient id="SVGID_00000140736869135697144920000011937277014849229733_" gradientUnits="userSpaceOnUse" x1="7.7569" y1="-105.2015" x2="127.0853" y2="14.127" gradientTransform="matrix(1 0 0 -1 0 31.55)">
		<stop  offset="0" style="stop-color:#098DA7"/>
		<stop  offset="0.59" style="stop-color:#0DCAF0"/>
	</linearGradient>
	<path style="fill:url(#SVGID_00000140736869135697144920000011937277014849229733_);" d="M77.3,78.9c0-1.3-1.1-2.4-2.4-2.4H55.9
		c-1.3,0.3-2.4,1.3-2.1,2.8c0.3,1.3,1.1,2.1,2.1,2.1h19.1C76.2,81.5,77.3,80.4,77.3,78.9z"/>
	
		<linearGradient id="SVGID_00000057847721214211752820000007042480037057218475_" gradientUnits="userSpaceOnUse" x1="10.7328" y1="-107.5071" x2="129.5531" y2="11.3131" gradientTransform="matrix(1 0 0 -1 0 31.55)">
		<stop  offset="0" style="stop-color:#098DA7"/>
		<stop  offset="0.59" style="stop-color:#0DCAF0"/>
	</linearGradient>
	<path style="fill:url(#SVGID_00000057847721214211752820000007042480037057218475_);" d="M61.6,82.2c-1.3,0-2.4,1.1-2.4,2.4
		s1.1,2.4,2.4,2.4l0,0h7.3c1.3,0,2.4-1.1,2.4-2.4s-1.1-2.4-2.4-2.4H61.6z"/>
	
		<linearGradient id="SVGID_00000071554347472155957770000011694623084514904501_" gradientUnits="userSpaceOnUse" x1="10.083" y1="-109.2644" x2="130.0268" y2="10.6794" gradientTransform="matrix(1 0 0 -1 0 31.55)">
		<stop  offset="0" style="stop-color:#098DA7"/>
		<stop  offset="0.59" style="stop-color:#0DCAF0"/>
	</linearGradient>
	<path style="fill:url(#SVGID_00000071554347472155957770000011694623084514904501_);" d="M94.6,47.7c-1.3-0.3-2.7,0.6-3,1.9
		c-0.3,1.3,0.4,2.4,1.5,2.8l10.6,3c0.3,0.3,0.4,0.3,0.6,0.3c1.1,0,2.1-0.9,2.4-1.8c0.4-1.3-0.4-2.8-1.8-3l0,0L94.6,47.7z"/>
	
		<linearGradient id="SVGID_00000078734970745422281040000008634663597338506378_" gradientUnits="userSpaceOnUse" x1="-2.0179" y1="-95.2161" x2="116.1348" y2="22.9365" gradientTransform="matrix(1 0 0 -1 0 31.55)">
		<stop  offset="0" style="stop-color:#098DA7"/>
		<stop  offset="0.59" style="stop-color:#0DCAF0"/>
	</linearGradient>
	<path style="fill:url(#SVGID_00000078734970745422281040000008634663597338506378_);" d="M92.7,31.9c0.4,0,0.6,0,1.1-0.4l10-4.5
		c1.1-0.6,1.8-1.9,1.1-3.3c-0.6-1.1-2.1-1.8-3.3-1.1l-10.2,4.5c-1.1,0.6-1.8,2.1-1.1,3.3C90.7,31.3,91.9,31.9,92.7,31.9z"/>
	
		<linearGradient id="SVGID_00000092446648015057034390000016389726145407575966_" gradientUnits="userSpaceOnUse" x1="-22.6672" y1="-75.1482" x2="95.7309" y2="43.2501" gradientTransform="matrix(1 0 0 -1 0 31.55)">
		<stop  offset="0" style="stop-color:#098DA7"/>
		<stop  offset="0.59" style="stop-color:#0DCAF0"/>
	</linearGradient>
	<path style="fill:url(#SVGID_00000092446648015057034390000016389726145407575966_);" d="M26.9,55.9c0.3,0,0.4,0,0.6-0.3l10.9-3
		c1.3-0.4,1.9-1.8,1.8-3l0,0c-0.4-1.3-1.8-1.9-3.3-1.8l-10.6,3c-1.3,0.4-1.9,1.8-1.8,3C25,55,25.7,55.9,26.9,55.9z"/>
	
		<linearGradient id="SVGID_00000090268555823952735250000009787790285796385177_" gradientUnits="userSpaceOnUse" x1="-35.892" y1="-65.2475" x2="84.7567" y2="55.4012" gradientTransform="matrix(1 0 0 -1 0 31.55)">
		<stop  offset="0" style="stop-color:#098DA7"/>
		<stop  offset="0.59" style="stop-color:#0DCAF0"/>
	</linearGradient>
	<path style="fill:url(#SVGID_00000090268555823952735250000009787790285796385177_);" d="M27.5,27.1l10,4.5
		c0.3,0.3,0.6,0.3,1.1,0.3c0.9,0,1.8-0.4,2.4-1.3c0.6-1.1,0.3-2.4-0.9-3c-0.3,0-0.3-0.3-0.4-0.3l-10-4.5c-1.1-0.6-2.7-0.3-3.3,0.9
		c0,0,0,0.3-0.3,0.3C25.7,25,26.2,26.5,27.5,27.1C27.5,26.9,27.5,26.9,27.5,27.1z"/>
	
		<linearGradient id="SVGID_00000001629997598991551590000016680080784747706504_" gradientUnits="userSpaceOnUse" x1="-27.3787" y1="-67.5535" x2="88.6507" y2="48.4759" gradientTransform="matrix(1 0 0 -1 0 31.55)">
		<stop  offset="0" style="stop-color:#098DA7"/>
		<stop  offset="0.59" style="stop-color:#0DCAF0"/>
	</linearGradient>
	<path style="fill:url(#SVGID_00000001629997598991551590000016680080784747706504_);" d="M65,13.5c1.3,0,2.4-1.1,2.4-2.4V2.4
		C67.4,1.1,66.2,0,65,0c-1.3,0-2.4,1.1-2.4,2.4v8.7C62.6,12.4,63.7,13.5,65,13.5z"/>
</g>
</svg>
