<?xml version="1.0" encoding="utf-8"?>
<!-- Generator: Adobe Illustrator 26.0.2, SVG Export Plug-In . SVG Version: 6.00 Build 0)  -->
<svg version="1.1" id="Layer_1" xmlns="http://www.w3.org/2000/svg" xmlns:xlink="http://www.w3.org/1999/xlink" x="0px" y="0px"
	 viewBox="0 0 445.1 191.8" style="enable-background:new 0 0 445.1 191.8;" xml:space="preserve">
<style type="text/css">
	.st0{fill:none;stroke:#ADB5BD;stroke-width:3;stroke-linecap:round;stroke-linejoin:round;stroke-miterlimit:10;}
	.st1{fill:#F9AB00;}
	.st2{fill:#E37400;}
	.st3{fill:#669DF3;}
	.st4{fill:#1A73E8;}
	.st5{fill:#FCC934;}
	.st6{fill:#FBBC04;}
	.st7{fill:#F29900;}
	.st8{fill:#8AB4F8;}
	.st9{fill:#4285F4;}
	.st10{fill:#246FDB;}
	.st11{fill:#B366F6;}
	.st12{fill:#8430CE;}
	.st13{fill:#C58AF8;}
	.st14{fill:#4184F3;}
	.st15{fill:#34A853;}
	.st16{fill:#EA4335;}
</style>
<line class="st0" x1="387.5" y1="121.9" x2="410.3" y2="55.5"/>
<line class="st0" x1="333.5" y1="94.6" x2="371.2" y2="146.8"/>
<line class="st0" x1="239.3" y1="146.2" x2="290.8" y2="76.4"/>
<line class="st0" x1="194.9" y1="59.1" x2="207.7" y2="135.4"/>
<line class="st0" x1="127.1" y1="75.9" x2="153.3" y2="52.2"/>
<g>
	<path class="st1" d="M206.1,43.7c0,3.4-2.8,6.2-6.2,6.2c-0.3,0-0.5,0-0.8,0c-3.2-0.5-5.5-3.2-5.4-6.5v-37c-0.1-3.2,2.3-6,5.4-6.5
		c3.4-0.4,6.5,2,6.9,5.4c0,0.3,0,0.5,0,0.8V43.7z"/>
	<path class="st2" d="M167.1,37.6c3.4,0,6.2,2.8,6.2,6.2s-2.8,6.2-6.2,6.2c-3.4,0-6.2-2.8-6.2-6.2S163.7,37.6,167.1,37.6z
		 M183.4,18.8c-3.4,0.2-6.1,3.1-6,6.5V42c0,4.5,2,7.3,4.9,7.8c3.4,0.7,6.6-1.5,7.3-4.8c0.1-0.4,0.1-0.8,0.1-1.2V25.1
		c0-3.4-2.8-6.2-6.2-6.2C183.5,18.8,183.5,18.8,183.4,18.8z"/>
</g>
<g>
	<path class="st3" d="M328.4,71h-19.5c-4.7,0-7.4,3.3-7.4,6.8c0,3.2,2.2,6.8,7.4,6.8h19.5V71z"/>
	<ellipse class="st4" cx="328.4" cy="77.8" rx="6.7" ry="6.8"/>
	<path class="st3" d="M308.3,52.8h-19.5c-4.7,0-7.4,3.3-7.4,6.8c0,3.2,2.2,6.8,7.4,6.8h19.5V52.8z"/>
	<ellipse class="st4" cx="308.3" cy="59.6" rx="6.7" ry="6.8"/>
	<path class="st3" d="M328.4,34.6h-19.5c-4.7,0-7.4,3.3-7.4,6.8c0,3.2,2.2,6.8,7.4,6.8h19.5V34.6z"/>
	<ellipse class="st4" cx="328.4" cy="41.4" rx="6.7" ry="6.8"/>
</g>
<g>
	<path class="st5" d="M381.8,176.1l20.8-36.8c1.9-3.3,0.8-7.4-2.5-9.3c-3.2-1.9-7.3-0.8-9.2,2.4c0,0,0,0.1,0,0.1L370,169.2
		L381.8,176.1z"/>
	<path class="st6" d="M359.6,155.6l19.9,11.1c3.2,1.7,4.4,5.6,2.7,8.7c-0.1,0.1-0.1,0.2-0.2,0.3c-2,3.2-6.1,4.3-9.4,2.5l-19.9-11.1
		L359.6,155.6z"/>
	<ellipse class="st7" cx="356.1" cy="161.3" rx="6.7" ry="6.7"/>
</g>
<g>
	<path class="st8" d="M222.5,189.9l-8.7-8.7l18.6-18.8l8.8,8.8L222.5,189.9z"/>
	<path class="st9" d="M222.6,152.5l-8.8-8.8L195,162.4c-2.4,2.4-2.4,6.4,0,8.8c0,0,0,0,0,0l18.7,18.7l8.7-8.7l-14.2-14.4
		L222.6,152.5z"/>
	<path class="st8" d="M241.3,162.4l-18.7-18.7c-2.4-2.4-6.4-2.4-8.8,0s-2.4,6.4,0,8.8l18.8,18.7c2.4,2.4,6.4,2.4,8.8,0
		C243.8,168.8,243.8,164.8,241.3,162.4L241.3,162.4z"/>
	<circle class="st10" cx="218.1" cy="185.6" r="6.2"/>
</g>
<g>
	<path class="st11" d="M428.4,24.9c-0.1-3.8-3.2-6.8-7-6.8h-18v13.5H415V43c-0.2,3.7,2.6,6.8,6.3,7c0.1,0,0.2,0,0.2,0
		c3.8,0,6.9-3.2,6.9-7l0,0L428.4,24.9L428.4,24.9z"/>
	<circle class="st12" cx="403.3" cy="24.9" r="6.8"/>
	<path class="st13" d="M445,6.8c0-3.8-3.1-6.8-6.9-6.8h-18.4c-3.5,0.4-6.2,3.3-6.2,6.8s2.7,6.5,6.2,6.8h11.8V25
		c-0.2,3.7,2.7,6.9,6.5,7c3.7,0.2,6.9-2.7,7-6.5c0-0.2,0-0.4,0-0.5L445,6.8z"/>
</g>
<g>
	<path class="st6" d="M81.2,138.3c-5.9-5.9-5.9-15.4,0-21.2c-11.7,11.7-30.7,11.7-42.4,0c5.9,5.9,5.9,15.4,0,21.2
		c-5.9,5.9-15.4,5.9-21.2,0c23.4,23.4,61.5,23.4,84.9,0C96.6,144.2,87.1,144.2,81.2,138.3L81.2,138.3z"/>
	<path class="st14" d="M102.4,53.5C79,30,41,30,17.6,53.5s-23.4,61.5,0,84.9c-5.9-5.9-5.9-15.4,0-21.2c5.9-5.9,15.4-5.9,21.2,0
		c-11.7-11.7-11.7-30.7,0-42.4s30.7-11.7,42.4,0c5.9,5.9,15.4,5.9,21.2,0C108.3,68.8,108.3,59.3,102.4,53.5L102.4,53.5z"/>
	<circle class="st15" cx="28.2" cy="127.7" r="15"/>
	<path class="st16" d="M102.4,53.5c5.9,5.9,5.9,15.4,0,21.2c-5.9,5.9-15.4,5.9-21.2,0c11.7,11.7,11.7,30.7,0,42.4
		c-5.9,5.9-5.9,15.4,0,21.2c5.9,5.9,15.4,5.9,21.2,0C125.8,114.9,125.8,76.9,102.4,53.5L102.4,53.5z"/>
</g>
</svg>
