<?xml version="1.0" encoding="utf-8"?>
<!-- Generator: Adobe Illustrator 26.0.1, SVG Export Plug-In . SVG Version: 6.00 Build 0)  -->
<svg version="1.1" id="Layer_1" xmlns="http://www.w3.org/2000/svg" xmlns:xlink="http://www.w3.org/1999/xlink" x="0px" y="0px"
	 viewBox="0 0 445.1 191.8" style="enable-background:new 0 0 445.1 191.8;" xml:space="preserve">
<style type="text/css">
	.st0{fill:none;stroke:#ADB5BD;stroke-width:3;stroke-linecap:round;stroke-miterlimit:10;}
	.st1{fill:none;stroke:#ADB5BD;stroke-width:3;stroke-linecap:round;stroke-miterlimit:10;stroke-dasharray:0.2547,6.1136;}
	.st2{fill:none;stroke:#003BFF;stroke-width:3;stroke-linecap:round;stroke-linejoin:round;stroke-miterlimit:10;}
	.st3{opacity:0.5;}
	.st4{fill:none;stroke:#ADB5BD;stroke-width:3;stroke-linecap:round;stroke-linejoin:round;stroke-miterlimit:10;}
	.st5{fill:#999999;stroke:#ADB5BD;stroke-width:3;stroke-linejoin:round;}
	.st6{fill:none;stroke:#ADB5BD;stroke-width:3;}
	.st7{fill:none;stroke:url(#SVGID_1_);stroke-width:3;stroke-linecap:round;stroke-miterlimit:10;}
	.st8{fill:#FFFFFF;stroke:#003BFF;stroke-width:3;stroke-miterlimit:10;}
	.st9{fill:none;stroke:#ADB5BD;stroke-width:3;stroke-miterlimit:10;}
	.st10{fill:#003BFF;}
	.st11{fill:none;stroke:#ADB5BD;stroke-width:3;stroke-linejoin:round;}
	.st12{fill:none;stroke:#003BFF;stroke-width:3;stroke-linecap:round;stroke-miterlimit:10;}
	.st13{fill:none;stroke:#ADB5BD;stroke-width:3;stroke-linecap:square;stroke-miterlimit:10;}
	.st14{fill:none;stroke:#ADB5BD;stroke-linecap:round;stroke-linejoin:round;stroke-miterlimit:10;}
	.st15{fill:none;stroke:#ADB5BD;stroke-width:4;stroke-linecap:round;stroke-linejoin:round;stroke-miterlimit:10;}
</style>
<g>
	<g>
		<path class="st0" d="M57.2,17.9h102.4c5.5,0,10,4.5,10,10v5.3c0,5.5-4.5,10-10,10H57.2"/>
		<line class="st0" x1="163.2" y1="30.6" x2="135.7" y2="30.6"/>
		<line class="st0" x1="124.4" y1="30.6" x2="110" y2="30.6"/>
		<line class="st0" x1="101.3" y1="30.6" x2="62.9" y2="30.6"/>
		<path class="st0" d="M38.7,19.1c5.4,1.1,9.4,5.8,9.4,11.4c0,5.5-3.8,10.2-9,11.4"/>
		<g>
			<g>
				<path class="st0" d="M30.7,40.8c0,0-0.1,0-0.1-0.1"/>
				<path class="st1" d="M26.3,36.5c-1-1.7-1.6-3.8-1.6-5.9c0-3.5,1.5-6.6,3.9-8.7"/>
				<path class="st0" d="M31.2,20.1c0,0,0.1,0,0.1-0.1"/>
			</g>
		</g>
		<polyline class="st2" points="31.9,30.1 34.9,33.1 40.4,27.8 		"/>
	</g>
	<g class="st3">
		<g>
			<path class="st4" d="M341.6,89.2c5.4-16.5,20.9-28.3,39.2-28.3"/>
			<polygon class="st4" points="377.8,65.6 380.8,60.8 377.8,56.1 382.6,60.8 			"/>
		</g>
		<g>
			<path class="st4" d="M393.7,62.9c16.5,5.4,28.3,20.9,28.3,39.2"/>
			<polygon class="st4" points="417.3,99.1 422.1,102.1 426.8,99.1 422.1,103.8 			"/>
		</g>
		<g>
			<path class="st4" d="M420,115c-5.4,16.5-20.9,28.3-39.2,28.3"/>
			<polygon class="st4" points="383.8,138.6 380.8,143.3 383.8,148.1 379.1,143.3 			"/>
		</g>
		<g>
			<path class="st4" d="M367.9,141.3c-16.5-5.4-28.3-20.9-28.3-39.2"/>
			<polygon class="st4" points="344.3,105.1 339.6,102.1 334.8,105.1 339.6,100.3 			"/>
		</g>
	</g>
	<path class="st0" d="M293.2,163.8h-18.8c-2.8,0-5-2.2-5-5V116c0-2.8,2.2-5,5-5h33.3c2.8,0,5,2.2,5,5v39.4"/>
	<g>
		<rect x="242.8" y="16.7" class="st5" width="5.9" height="5.9"/>
		<rect x="294.7" y="16.7" class="st5" width="5.9" height="5.9"/>
		<rect x="294.7" y="65.8" class="st5" width="5.9" height="5.9"/>
		<rect x="245.8" y="19.6" class="st6" width="51.9" height="49.1"/>
	</g>
	
		<linearGradient id="SVGID_1_" gradientUnits="userSpaceOnUse" x1="130.35" y1="-595.8" x2="130.35" y2="-487.9" gradientTransform="matrix(1 0 0 -1 0 -404)">
		<stop  offset="0" style="stop-color:#003BFF;stop-opacity:0"/>
		<stop  offset="6.900521e-02" style="stop-color:#003BFF;stop-opacity:0.1357"/>
		<stop  offset="0.5084" style="stop-color:#003BFF"/>
	</linearGradient>
	<path class="st7" d="M23.1,190.3V95.4c0-5.5,4.5-10,10-10h194.5c5.5,0,10,4.5,10,10v94.9"/>
	<g>
		<circle class="st8" cx="6.1" cy="150.2" r="4.6"/>
		<circle class="st8" cx="23.1" cy="150.2" r="4.6"/>
		<circle class="st8" cx="40.1" cy="150.2" r="4.6"/>
	</g>
	<g class="st3">
		<circle class="st9" cx="130.4" cy="178.4" r="10.5"/>
		<path class="st9" d="M133.3,162.3h-5.7c-2.8,0-5.2-2.2-5.3-5.1l-2.1-46.3c-0.1-3,2.3-5.5,5.3-5.5h9.9c3,0,5.4,2.5,5.3,5.5
			l-2.1,46.4C138.4,160.1,136.1,162.3,133.3,162.3z"/>
	</g>
	<g>
		<path class="st10" d="M133.3,94.9V39h26.1v55.4c0,12.6,4.9,17.9,11.8,17.9c6.9,0,11.8-4.9,11.8-17.2V39h26.1v55.1
			c0,34.6-15.2,48.2-38.1,48.2C148.1,142.3,133.3,128.4,133.3,94.9z"/>
		<path class="st10" d="M236.7,88.8L211.9,39H241l11.1,24.2L263.3,39h28.6L267,88.5l26,51.8h-29.1L251.6,114l-12.3,26.3h-28.6
			L236.7,88.8z"/>
	</g>
	<g>
		<g>
			<path class="st6" d="M209.1,94.1c0,34.6-15.2,48.2-38.1,48.2s-37.7-13.9-37.7-47.5"/>
		</g>
		<rect x="169" y="140.6" class="st11" width="4.3" height="4.3"/>
		<rect x="135.7" y="140.2" class="st11" width="5.2" height="5.2"/>
		<rect x="130.7" y="90.3" class="st11" width="5.2" height="5.2"/>
		<rect x="201.5" y="140.2" class="st11" width="5.2" height="5.2"/>
		<rect x="206.5" y="90.3" class="st11" width="5.2" height="5.2"/>
		<line class="st11" x1="141.5" y1="142.8" x2="201.5" y2="142.8"/>
	</g>
	<path class="st9" d="M108.9,76.5H32.8c-5.3,0-9.7-4.5-9.7-10v-5.3c0-5.5,4.4-10,9.7-10h76c5.3,0,9.7,4.5,9.7,10v5.3
		C118.6,72,114.2,76.5,108.9,76.5z"/>
	<g>
		<line class="st0" x1="177.7" y1="1.5" x2="177.7" y2="5.9"/>
		<line class="st0" x1="177.7" y1="12.6" x2="177.7" y2="16.9"/>
		<line class="st0" x1="185.4" y1="9.2" x2="181.1" y2="9.2"/>
		<line class="st0" x1="174.4" y1="9.2" x2="170" y2="9.2"/>
	</g>
	<g>
		<line class="st0" x1="261.2" y1="163.8" x2="261.2" y2="168.2"/>
		<line class="st0" x1="261.2" y1="174.9" x2="261.2" y2="179.3"/>
		<line class="st0" x1="268.9" y1="171.5" x2="264.6" y2="171.5"/>
		<line class="st0" x1="257.8" y1="171.5" x2="253.5" y2="171.5"/>
	</g>
	<g>
		<g>
			<line class="st12" x1="443.6" y1="8.8" x2="431.2" y2="21.2"/>
			<line class="st12" x1="443.6" y1="21.2" x2="431.2" y2="8.8"/>
		</g>
		<circle class="st12" cx="405.8" cy="15" r="7.3"/>
		<circle class="st12" cx="381.8" cy="15" r="7.3"/>
		<circle class="st12" cx="357.8" cy="15" r="7.3"/>
	</g>
	<g>
		<circle class="st9" cx="291.1" cy="137.4" r="15"/>
		<line class="st0" x1="284.2" y1="137.4" x2="297.9" y2="137.4"/>
		<line class="st0" x1="284.2" y1="131.4" x2="297.9" y2="131.4"/>
		<line class="st0" x1="284.2" y1="143.4" x2="297.9" y2="143.4"/>
		<path class="st9" d="M295,151.9l5.8,16.3c1.4,3.8,5.9,5.5,9.4,3.5l0,0c3.5-2,4.4-6.8,1.7-9.9l-11.1-13"/>
	</g>
	<g>
		<line class="st13" x1="334.7" y1="67.8" x2="339.7" y2="72.8"/>
		<path class="st0" d="M319,68.5h-2.6c-1.1,0-2-0.9-2-2v-2.6"/>
		<path class="st0" d="M314.4,51.8v-2.6c0-1.1,0.9-2,2-2h2.6"/>
		<path class="st0" d="M331,47.2h2.6c1.1,0,2,0.9,2,2v2.6"/>
		<path class="st4" d="M338.1,63.2c0.6,0.3,0.9,1.1,0.4,1.5l-4.5,2.5l-2.5,4.5c-0.5,0.5-1.3,0.3-1.5-0.4l-4.6-11.5
			c-0.3-0.8,0.4-1.5,1.2-1.2L338.1,63.2z"/>
	</g>
	<g>
		<line class="st0" x1="314.4" y1="86.3" x2="333.4" y2="86.3"/>
		<line class="st0" x1="339.5" y1="86.3" x2="353.6" y2="86.3"/>
		<line class="st0" x1="327.6" y1="92.9" x2="353.6" y2="92.9"/>
		<line class="st0" x1="314.4" y1="92.9" x2="322.3" y2="92.9"/>
		<line class="st0" x1="345.6" y1="99.5" x2="353.6" y2="99.5"/>
	</g>
	<g>
		<polyline class="st14" points="318.3,108.6 314.4,104.7 318.3,100.9 		"/>
		<polyline class="st14" points="327.8,100.9 331.7,104.7 327.8,108.6 		"/>
		<line class="st14" x1="324.9" y1="100.7" x2="321" y2="109"/>
	</g>
	<g>
		<g>
			<path class="st15" d="M357.1,130.4c5.4-16.5,20.9-28.3,39.2-28.3"/>
			<polygon class="st15" points="393.3,106.8 396.3,102.1 393.3,97.3 398,102.1 			"/>
		</g>
		<g>
			<path class="st15" d="M409.2,104.1c16.5,5.4,28.3,20.9,28.3,39.2"/>
			<polygon class="st15" points="432.8,140.3 437.6,143.3 442.3,140.3 437.6,145.1 			"/>
		</g>
		<g>
			<path class="st15" d="M435.5,156.3c-5.4,16.5-20.9,28.3-39.2,28.3"/>
			<polygon class="st15" points="399.3,179.9 396.3,184.6 399.3,189.4 394.5,184.6 			"/>
		</g>
		<g>
			<path class="st15" d="M383.4,182.5c-16.5-5.4-28.3-20.9-28.3-39.2"/>
			<polygon class="st15" points="359.8,146.3 355,143.3 350.3,146.3 355,141.6 			"/>
		</g>
	</g>
</g>
</svg>
