<?xml version="1.0" encoding="utf-8"?>
<!-- Generator: Adobe Illustrator 26.0.2, SVG Export Plug-In . SVG Version: 6.00 Build 0)  -->
<svg version="1.1" id="Layer_1" xmlns="http://www.w3.org/2000/svg" xmlns:xlink="http://www.w3.org/1999/xlink" x="0px" y="0px"
	 viewBox="0 0 444.9 191.7" style="enable-background:new 0 0 444.9 191.7;" xml:space="preserve">
<style type="text/css">
	.st0{fill:none;stroke:#ADB5BD;stroke-width:3;stroke-linecap:round;stroke-miterlimit:10;}
	.st1{fill:none;stroke:#003BFF;stroke-width:3;stroke-linecap:round;stroke-linejoin:round;}
	.st2{fill:none;stroke:#ADB5BD;stroke-width:3;stroke-linecap:round;stroke-linejoin:round;}
	.st3{fill:none;stroke:#ADB5BD;stroke-width:3;stroke-miterlimit:10;}
	.st4{fill:none;stroke:#ADB5BD;stroke-width:3;stroke-linecap:round;stroke-miterlimit:10;stroke-dasharray:0.2547,6.1136;}
</style>
<path class="st0" d="M81,48.9c7.7-10.8,22.7-13.3,33.5-5.6s13.3,22.7,5.6,33.5s-22.7,13.3-33.5,5.6c-2.2-1.6-4.1-3.5-5.6-5.6"/>
<path class="st0" d="M105.5,73.4c-0.1-1.4-0.1-2.8-0.1-4.2c0.7-0.4,2-2.8,2.3-4.9c0.6,0,1.5-0.6,1.7-2.8c0.2-0.8-0.1-1.6-0.8-2.1
	c0.9-2.8,2.9-11.5-3.6-12.4c-0.7-1.2-2.4-1.8-4.6-1.8c-8.9,0.2-9.9,6.7-8,14.2c-0.6,0.5-0.9,1.3-0.8,2.1c0.3,2.2,1.2,2.8,1.7,2.8
	c0.2,2.1,1.6,4.5,2.3,4.9c0,1.4,0,2.8-0.1,4.2c-1.3,3.4-7.7,3.7-11.5,6.9c4.6,4.3,10.6,6.8,16.9,6.7c6.7,0,14.5-5.3,15.8-6.7
	C113.2,77,106.7,76.8,105.5,73.4z"/>
<line class="st0" x1="55.6" y1="37" x2="28.1" y2="37"/>
<line class="st0" x1="37.7" y1="27.2" x2="23.3" y2="27.2"/>
<line class="st0" x1="58.7" y1="27.2" x2="44.3" y2="27.2"/>
<line class="st0" x1="56.9" y1="17.5" x2="18.5" y2="17.5"/>
<line class="st0" x1="24.4" y1="66.8" x2="18.5" y2="66.8"/>
<line class="st0" x1="24.4" y1="10.3" x2="18.5" y2="10.3"/>
<line class="st0" x1="10.8" y1="10.3" x2="10.7" y2="10.3"/>
<line class="st0" x1="37.7" y1="57.5" x2="23.3" y2="57.5"/>
<line class="st0" x1="73" y1="47.2" x2="28.1" y2="47.2"/>
<path class="st0" d="M39.8,102.3H8.6c-3.8,0-7-3.1-7-6.9c0,0,0-0.1,0-0.1V8.5c0-3.8,3.1-7,6.9-7c0,0,0.1,0,0.1,0H74
	c3.8,0,7,3.1,7,6.9c0,0,0,0.1,0,0.1v86.8c0,1.5-0.5,3-1.4,4.3"/>
<line class="st0" x1="10.8" y1="18.3" x2="10.7" y2="18.3"/>
<line class="st0" x1="10.8" y1="26.3" x2="10.7" y2="26.3"/>
<line class="st0" x1="10.8" y1="34.3" x2="10.7" y2="34.3"/>
<line class="st0" x1="10.8" y1="42.3" x2="10.7" y2="42.3"/>
<line class="st0" x1="10.8" y1="50.3" x2="10.7" y2="50.3"/>
<line class="st0" x1="10.8" y1="58.3" x2="10.7" y2="58.3"/>
<line class="st0" x1="10.8" y1="66.3" x2="10.7" y2="66.3"/>
<line class="st0" x1="10.8" y1="74.3" x2="10.7" y2="74.3"/>
<line class="st0" x1="10.8" y1="82.3" x2="10.7" y2="82.3"/>
<line class="st0" x1="10.8" y1="90.3" x2="10.7" y2="90.3"/>
<line class="st1" x1="384" y1="116.6" x2="415.2" y2="1.5"/>
<polyline class="st1" points="376,127.3 378.6,136.4 381,127.7 "/>
<polyline class="st1" points="280.9,72.2 303.1,109.2 318,75.8 347.4,29.5 372.9,116.9 "/>
<polyline class="st1" points="1.5,190.2 63.9,69 86.5,141.3 117.1,97 140.6,162.8 152,125.6 "/>
<polyline class="st2" points="284.2,82.4 303.1,59.2 318,78.8 347.4,49.5 378.6,96.4 443.4,1.5 "/>
<polyline class="st2" points="1.5,190.2 63.9,123.2 86.5,158.7 117.1,127 140.6,145.8 152.5,134.7 "/>
<path class="st1" d="M226.5,37.8"/>
<circle class="st1" cx="237.1" cy="34.2" r="5"/>
<circle class="st1" cx="255" cy="32.8" r="5"/>
<ellipse transform="matrix(0.2298 -0.9732 0.9732 0.2298 146.2421 293.1387)" class="st1" cx="258.3" cy="54.2" rx="5" ry="5"/>
<circle class="st1" cx="273.4" cy="65.6" r="5"/>
<circle class="st1" cx="237.9" cy="70.9" r="5"/>
<circle class="st1" cx="245" cy="91.6" r="5"/>
<circle class="st1" cx="265.1" cy="89.1" r="5"/>
<circle class="st1" cx="275.9" cy="106.3" r="5"/>
<circle class="st1" cx="281.2" cy="124.9" r="5"/>
<circle class="st1" cx="265.1" cy="145.8" r="5"/>
<ellipse transform="matrix(0.1602 -0.9871 0.9871 0.1602 99.5974 350.3189)" class="st1" cx="255.7" cy="116.6" rx="5" ry="5"/>
<circle class="st1" cx="247.4" cy="132.4" r="5"/>
<circle class="st1" cx="250" cy="150.8" r="5"/>
<path class="st1" d="M270.1,159.7c1.4-4.8,4.2-11.5,11.5-14.4"/>
<path class="st1" d="M245,150.8c-4.2,0-6-2.9-8.6-5.5s-7.2-0.8-9.6-0.7"/>
<path class="st1" d="M267.1,141.3c1.2-5.3,5.9-1.1,1.8-12.2"/>
<path class="st1" d="M258.5,120.7c2.6,2.6,1,3.9,3.4,6.3s10.1,2.9,15,0.4"/>
<path class="st1" d="M243.4,129.4c-4.4-2.5-7.1-1.3-5.8-11.2"/>
<path class="st1" d="M226.8,107.1c4.2,0,8.4-4.5,12.4-4.5s6.4,3.7,11.1,3.7s7.6-5,12.8-5s6.1,3,8.2,3"/>
<path class="st1" d="M264.3,94.1c0,2.3-1.2,3.5-1.2,7.2"/>
<path class="st1" d="M276.9,82.6c5.8,7.2,11.6,4.3,11.6,20.2"/>
<path class="st1" d="M242.1,73.5c6.4,3.9,9.1,1.9,13.5,3.6s11.4-2.8,14.7-7.6"/>
<path class="st1" d="M248.9,88.4c5.2-6.9,8.9-1.8,8.3-11"/>
<path class="st1" d="M255.9,58.5c-1.1,2.5-5,6.8-9.6,4.2"/>
<path class="st1" d="M264.7,38.1c0.9,6.9-2.8,7.1,7,13.7"/>
<path class="st1" d="M227.6,49.6c10.2,0.3,10.9,1.7,16.1-0.7s6.7-0.8,10.3-11.3"/>
<path class="st1" d="M237.9,39.2c0.7,3.8,3.1,7.2-0.4,11.1"/>
<path class="st1" d="M229.2,27.7c6.8-6,5.1-7,13.7-4"/>
<path class="st1" d="M194.9,58.6c-1.8-0.6-5.7-1.7-5.8-9.5s3.7-8.8,4.7-11.2s0.7-3.9,2.3-7.2s4.1-5,7.3-5s3.1,2.1,7.5,2.1
	s5.2-1.1,8.3-1.1s7.6,1.2,7.6,11.3v113c0.4,16.3-19.5,17.2-27.5,15.9"/>
<path class="st1" d="M226.8,149c2.7,6.7,1.2,9.1,4.6,12.6s8.6,5,13.2,5"/>
<path class="st1" d="M188.8,45.2c-4.7,0.7-8.1,5.5-8.1,15.8c0,6.9,4.3,17.4,21.3,17.4"/>
<path class="st1" d="M219.4,68c-5,4,5.5,7.9-13.5,9.1c-9.6,1.5,0.6,12,7.9,12"/>
<path class="st1" d="M202.6,49.2c0,8.6-0.2,11.8,7.6,11.8c6.1,0,4.9-1,8.8-2.5c2.4-0.9,5.1-0.9,7.5,0"/>
<path class="st1" d="M218.1,46.9c3,3,3.7,5,3.2,6.7s-2,3-1.5,4.6"/>
<path class="st1" d="M177.9,86.6c-6.2-5.8-7.1-20.3,2.8-25.6"/>
<path class="st1" d="M175.1,82.9c-3.8,5-7.6,4-7.6,8.7"/>
<path class="st1" d="M199.3,105.8c7.2,0,11.7-3,17-3s3.9,7.8,10.2,7.8"/>
<path class="st1" d="M206.7,135.2c5.5,0,6.7-1.7,8.3-3.3s4.3-4.6,2.1-8.7"/>
<path class="st1" d="M226.5,150.4c-5.1,0-4.5-5.1-9.5-5.1s-4.5,5.1-17.6,5.1"/>
<circle class="st0" cx="177.9" cy="164.3" r="1.4"/>
<path class="st2" d="M167.1,91.6h22.4c0.8,0,1.4,0.6,1.4,1.4v0c0,0.8-0.6,1.4-1.4,1.4h-22.4c-0.8,0-1.4-0.6-1.4-1.4v0
	C165.6,92.3,166.3,91.6,167.1,91.6z"/>
<path class="st0" d="M159.4,91.6h37c1.6,0,3,1.3,3,3v72c0,1.6-1.3,3-3,3h-37c-1.6,0-3-1.3-3-3v-72C156.4,92.9,157.7,91.6,159.4,91.6
	z"/>
<path class="st3" d="M378.9,121.6c8.3,0,15,6.7,15,15s-6.7,15-15,15c-8.3,0-15-6.7-15-15c0-6.2,3.8-11.7,9.6-14
	C375.2,121.9,377,121.6,378.9,121.6z"/>
<path class="st3" d="M382.8,151.1l5.8,16.3c1.2,3.4,5,5.2,8.5,3.9c0.3-0.1,0.6-0.3,0.9-0.4l0,0c3.1-1.8,4.2-5.8,2.4-8.9
	c-0.2-0.4-0.4-0.7-0.7-1l-11.1-13"/>
<line class="st0" x1="338.4" y1="122.5" x2="320.9" y2="122.5"/>
<line class="st0" x1="341.3" y1="112.7" x2="320.9" y2="112.7"/>
<line class="st0" x1="359.3" y1="103" x2="320.9" y2="103"/>
<line class="st0" x1="326.8" y1="95.8" x2="320.9" y2="95.8"/>
<line class="st0" x1="379.5" y1="169.7" x2="365.1" y2="169.7"/>
<line class="st0" x1="356.4" y1="169.7" x2="318" y2="169.7"/>
<path class="st0" d="M293.8,158.2c6.3,1.3,10.4,7.4,9.2,13.7c-0.9,4.5-4.3,8-8.8,9.1"/>
<path class="st0" d="M285.8,179.9c-0.1,0-0.1,0-0.1-0.1c0,0,0,0,0,0"/>
<path class="st4" d="M281.4,175.6c-1-1.8-1.6-3.8-1.6-5.9c0-3.3,1.4-6.5,3.9-8.7"/>
<path class="st0" d="M286.3,159.2c0.1,0,0.1,0,0.1-0.1c0,0,0,0,0,0"/>
<polyline class="st1" points="287,169.2 290,172.2 295.5,166.9 "/>
<line class="st0" x1="91.7" y1="12.5" x2="191.3" y2="12.5"/>
<line class="st0" x1="102.7" y1="22" x2="152.5" y2="22"/>
<line class="st0" x1="116.9" y1="32.8" x2="176.9" y2="32.8"/>
</svg>
